<?xml version="1.0" encoding="UTF-8" standalone="no"?>
<!DOCTYPE svg PUBLIC "-//W3C//DTD SVG 1.1//EN"
 "http://www.w3.org/Graphics/SVG/1.1/DTD/svg11.dtd">
<!-- Generated by graphviz version 12.1.1 (20240910.0053)
 -->
<!-- Pages: 1 -->
<svg width="1138pt" height="128pt"
 viewBox="0.00 0.00 1137.50 128.00" xmlns="http://www.w3.org/2000/svg" xmlns:xlink="http://www.w3.org/1999/xlink">
<g id="graph0" class="graph" transform="scale(1 1) rotate(0) translate(4 124)">
<polygon fill="white" stroke="none" points="-4,4 -4,-124 1133.5,-124 1133.5,4 -4,4"/>
<!-- 2865914122208 -->
<g id="node1" class="node">
<title>2865914122208</title>
<polygon fill="none" stroke="black" points="627.75,-82.5 627.75,-118.5 813.75,-118.5 813.75,-82.5 627.75,-82.5"/>
<text text-anchor="middle" x="638" y="-95.7" font-family="Times New Roman,serif" font-size="14.00">f</text>
<polyline fill="none" stroke="black" points="648.25,-83 648.25,-118.5"/>
<text text-anchor="middle" x="690.38" y="-95.7" font-family="Times New Roman,serif" font-size="14.00">data &#45;1.9600</text>
<polyline fill="none" stroke="black" points="732.5,-83 732.5,-118.5"/>
<text text-anchor="middle" x="773.12" y="-95.7" font-family="Times New Roman,serif" font-size="14.00">grad 0.0000</text>
</g>
<!-- 2865914121056* -->
<g id="node6" class="node">
<title>2865914121056*</title>
<ellipse fill="none" stroke="black" cx="876.75" cy="-72.5" rx="27" ry="18"/>
<text text-anchor="middle" x="876.75" y="-67.45" font-family="Times New Roman,serif" font-size="14.00">*</text>
</g>
<!-- 2865914122208&#45;&gt;2865914121056* -->
<g id="edge4" class="edge">
<title>2865914122208&#45;&gt;2865914121056*</title>
<path fill="none" stroke="black" d="M814,-83.73C822.85,-82.12 831.42,-80.56 839.21,-79.14"/>
<polygon fill="black" stroke="black" points="839.68,-82.62 848.9,-77.38 838.43,-75.73 839.68,-82.62"/>
</g>
<!-- 2865914128976 -->
<g id="node2" class="node">
<title>2865914128976</title>
<polygon fill="none" stroke="black" points="628.88,-27.5 628.88,-63.5 812.62,-63.5 812.62,-27.5 628.88,-27.5"/>
<text text-anchor="middle" x="640.25" y="-40.7" font-family="Times New Roman,serif" font-size="14.00">d</text>
<polyline fill="none" stroke="black" points="651.62,-28 651.62,-63.5"/>
<text text-anchor="middle" x="691.5" y="-40.7" font-family="Times New Roman,serif" font-size="14.00">data 3.7176</text>
<polyline fill="none" stroke="black" points="731.38,-28 731.38,-63.5"/>
<text text-anchor="middle" x="772" y="-40.7" font-family="Times New Roman,serif" font-size="14.00">grad 0.0000</text>
</g>
<!-- 2865914128976&#45;&gt;2865914121056* -->
<g id="edge6" class="edge">
<title>2865914128976&#45;&gt;2865914121056*</title>
<path fill="none" stroke="black" d="M813.11,-61.52C822.25,-63.12 831.11,-64.67 839.15,-66.08"/>
<polygon fill="black" stroke="black" points="838.33,-69.49 848.79,-67.77 839.54,-62.6 838.33,-69.49"/>
</g>
<!-- 2865914128976+ -->
<g id="node3" class="node">
<title>2865914128976+</title>
<ellipse fill="none" stroke="black" cx="564.75" cy="-45.5" rx="27" ry="18"/>
<text text-anchor="middle" x="564.75" y="-40.45" font-family="Times New Roman,serif" font-size="14.00">+</text>
</g>
<!-- 2865914128976+&#45;&gt;2865914128976 -->
<g id="edge1" class="edge">
<title>2865914128976+&#45;&gt;2865914128976</title>
<path fill="none" stroke="black" d="M592.22,-45.5C599.62,-45.5 608.13,-45.5 617.18,-45.5"/>
<polygon fill="black" stroke="black" points="616.92,-49 626.92,-45.5 616.92,-42 616.92,-49"/>
</g>
<!-- 2865914123120 -->
<g id="node4" class="node">
<title>2865914123120</title>
<polygon fill="none" stroke="black" points="0,-83.5 0,-119.5 188.25,-119.5 188.25,-83.5 0,-83.5"/>
<text text-anchor="middle" x="11.38" y="-96.7" font-family="Times New Roman,serif" font-size="14.00">b</text>
<polyline fill="none" stroke="black" points="22.75,-84 22.75,-119.5"/>
<text text-anchor="middle" x="64.88" y="-96.7" font-family="Times New Roman,serif" font-size="14.00">data &#45;3.0400</text>
<polyline fill="none" stroke="black" points="107,-84 107,-119.5"/>
<text text-anchor="middle" x="147.62" y="-96.7" font-family="Times New Roman,serif" font-size="14.00">grad 0.0000</text>
</g>
<!-- 2865914133872* -->
<g id="node8" class="node">
<title>2865914133872*</title>
<ellipse fill="none" stroke="black" cx="251.25" cy="-73.5" rx="27" ry="18"/>
<text text-anchor="middle" x="251.25" y="-68.45" font-family="Times New Roman,serif" font-size="14.00">*</text>
</g>
<!-- 2865914123120&#45;&gt;2865914133872* -->
<g id="edge8" class="edge">
<title>2865914123120&#45;&gt;2865914133872*</title>
<path fill="none" stroke="black" d="M188.49,-84.65C197.36,-83.05 205.93,-81.5 213.73,-80.09"/>
<polygon fill="black" stroke="black" points="214.2,-83.56 223.42,-78.34 212.95,-76.68 214.2,-83.56"/>
</g>
<!-- 2865914121056 -->
<g id="node5" class="node">
<title>2865914121056</title>
<polygon fill="none" stroke="black" points="939.75,-54.5 939.75,-90.5 1129.5,-90.5 1129.5,-54.5 939.75,-54.5"/>
<text text-anchor="middle" x="951.88" y="-67.7" font-family="Times New Roman,serif" font-size="14.00">L</text>
<polyline fill="none" stroke="black" points="964,-55 964,-90.5"/>
<text text-anchor="middle" x="1006.12" y="-67.7" font-family="Times New Roman,serif" font-size="14.00">data &#45;7.2865</text>
<polyline fill="none" stroke="black" points="1048.25,-55 1048.25,-90.5"/>
<text text-anchor="middle" x="1088.88" y="-67.7" font-family="Times New Roman,serif" font-size="14.00">grad 0.0000</text>
</g>
<!-- 2865914121056*&#45;&gt;2865914121056 -->
<g id="edge2" class="edge">
<title>2865914121056*&#45;&gt;2865914121056</title>
<path fill="none" stroke="black" d="M904.19,-72.5C911.34,-72.5 919.53,-72.5 928.24,-72.5"/>
<polygon fill="black" stroke="black" points="928.01,-76 938.01,-72.5 928.01,-69 928.01,-76"/>
</g>
<!-- 2865914133872 -->
<g id="node7" class="node">
<title>2865914133872</title>
<polygon fill="none" stroke="black" points="314.25,-55.5 314.25,-91.5 501.75,-91.5 501.75,-55.5 314.25,-55.5"/>
<text text-anchor="middle" x="325.25" y="-68.7" font-family="Times New Roman,serif" font-size="14.00">e</text>
<polyline fill="none" stroke="black" points="336.25,-56 336.25,-91.5"/>
<text text-anchor="middle" x="378.38" y="-68.7" font-family="Times New Roman,serif" font-size="14.00">data &#45;6.2624</text>
<polyline fill="none" stroke="black" points="420.5,-56 420.5,-91.5"/>
<text text-anchor="middle" x="461.12" y="-68.7" font-family="Times New Roman,serif" font-size="14.00">grad 0.0000</text>
</g>
<!-- 2865914133872&#45;&gt;2865914128976+ -->
<g id="edge5" class="edge">
<title>2865914133872&#45;&gt;2865914128976+</title>
<path fill="none" stroke="black" d="M502.14,-56.65C510.9,-55.06 519.38,-53.53 527.09,-52.13"/>
<polygon fill="black" stroke="black" points="527.46,-55.62 536.68,-50.4 526.21,-48.73 527.46,-55.62"/>
</g>
<!-- 2865914133872*&#45;&gt;2865914133872 -->
<g id="edge3" class="edge">
<title>2865914133872*&#45;&gt;2865914133872</title>
<path fill="none" stroke="black" d="M278.5,-73.5C285.66,-73.5 293.87,-73.5 302.6,-73.5"/>
<polygon fill="black" stroke="black" points="302.39,-77 312.39,-73.5 302.39,-70 302.39,-77"/>
</g>
<!-- 2865914133968 -->
<g id="node9" class="node">
<title>2865914133968</title>
<polygon fill="none" stroke="black" points="2.62,-28.5 2.62,-64.5 185.62,-64.5 185.62,-28.5 2.62,-28.5"/>
<text text-anchor="middle" x="13.62" y="-41.7" font-family="Times New Roman,serif" font-size="14.00">a</text>
<polyline fill="none" stroke="black" points="24.62,-29 24.62,-64.5"/>
<text text-anchor="middle" x="64.5" y="-41.7" font-family="Times New Roman,serif" font-size="14.00">data 2.0600</text>
<polyline fill="none" stroke="black" points="104.38,-29 104.38,-64.5"/>
<text text-anchor="middle" x="145" y="-41.7" font-family="Times New Roman,serif" font-size="14.00">grad 0.0000</text>
</g>
<!-- 2865914133968&#45;&gt;2865914133872* -->
<g id="edge7" class="edge">
<title>2865914133968&#45;&gt;2865914133872*</title>
<path fill="none" stroke="black" d="M185.81,-62.28C195.45,-63.96 204.82,-65.59 213.29,-67.07"/>
<polygon fill="black" stroke="black" points="212.65,-70.51 223.1,-68.77 213.85,-63.61 212.65,-70.51"/>
</g>
<!-- 2865914125280 -->
<g id="node10" class="node">
<title>2865914125280</title>
<polygon fill="none" stroke="black" points="316.5,-0.5 316.5,-36.5 499.5,-36.5 499.5,-0.5 316.5,-0.5"/>
<text text-anchor="middle" x="327.5" y="-13.7" font-family="Times New Roman,serif" font-size="14.00">c</text>
<polyline fill="none" stroke="black" points="338.5,-1 338.5,-36.5"/>
<text text-anchor="middle" x="378.38" y="-13.7" font-family="Times New Roman,serif" font-size="14.00">data 9.9800</text>
<polyline fill="none" stroke="black" points="418.25,-1 418.25,-36.5"/>
<text text-anchor="middle" x="458.88" y="-13.7" font-family="Times New Roman,serif" font-size="14.00">grad 0.0000</text>
</g>
<!-- 2865914125280&#45;&gt;2865914128976+ -->
<g id="edge9" class="edge">
<title>2865914125280&#45;&gt;2865914128976+</title>
<path fill="none" stroke="black" d="M499.91,-34.36C509.48,-36.03 518.77,-37.65 527.16,-39.12"/>
<polygon fill="black" stroke="black" points="526.41,-42.54 536.86,-40.81 527.62,-35.64 526.41,-42.54"/>
</g>
</g>
</svg>
