<?xml version="1.0" encoding="UTF-8" standalone="no"?>
<!DOCTYPE svg PUBLIC "-//W3C//DTD SVG 1.1//EN"
 "http://www.w3.org/Graphics/SVG/1.1/DTD/svg11.dtd">
<!-- Generated by graphviz version 12.1.1 (20240910.0053)
 -->
<!-- Pages: 1 -->
<svg width="1260pt" height="147pt"
 viewBox="0.00 0.00 1259.75 147.00" xmlns="http://www.w3.org/2000/svg" xmlns:xlink="http://www.w3.org/1999/xlink">
<g id="graph0" class="graph" transform="scale(1 1) rotate(0) translate(4 143)">
<polygon fill="white" stroke="none" points="-4,4 -4,-143 1255.75,-143 1255.75,4 -4,4"/>
<!-- 2865912802304 -->
<g id="node1" class="node">
<title>2865912802304</title>
<polygon fill="none" stroke="black" points="233,-102.5 233,-138.5 370.75,-138.5 370.75,-102.5 233,-102.5"/>
<text text-anchor="middle" x="262" y="-115.7" font-family="Times New Roman,serif" font-size="14.00">x2=x*x</text>
<polyline fill="none" stroke="black" points="291,-103 291,-138.5"/>
<text text-anchor="middle" x="330.88" y="-115.7" font-family="Times New Roman,serif" font-size="14.00">data 9.0000</text>
</g>
<!-- 2865912805088* -->
<g id="node10" class="node">
<title>2865912805088*</title>
<ellipse fill="none" stroke="black" cx="476.75" cy="-73.5" rx="27" ry="18"/>
<text text-anchor="middle" x="476.75" y="-68.45" font-family="Times New Roman,serif" font-size="14.00">*</text>
</g>
<!-- 2865912802304&#45;&gt;2865912805088* -->
<g id="edge9" class="edge">
<title>2865912802304&#45;&gt;2865912805088*</title>
<path fill="none" stroke="black" d="M370.7,-102.06C394.43,-95.61 420.11,-88.63 440.15,-83.18"/>
<polygon fill="black" stroke="black" points="441.04,-86.56 449.77,-80.56 439.2,-79.81 441.04,-86.56"/>
</g>
<!-- 2865912802304* -->
<g id="node2" class="node">
<title>2865912802304*</title>
<ellipse fill="none" stroke="black" cx="170" cy="-114.5" rx="27" ry="18"/>
<text text-anchor="middle" x="170" y="-109.45" font-family="Times New Roman,serif" font-size="14.00">*</text>
</g>
<!-- 2865912802304*&#45;&gt;2865912802304 -->
<g id="edge1" class="edge">
<title>2865912802304*&#45;&gt;2865912802304</title>
<path fill="none" stroke="black" d="M197.28,-115.71C204.5,-116.05 212.71,-116.43 221.29,-116.82"/>
<polygon fill="black" stroke="black" points="221.05,-120.32 231.2,-117.28 221.38,-113.32 221.05,-120.32"/>
</g>
<!-- 2865912798272 -->
<g id="node3" class="node">
<title>2865912798272</title>
<polygon fill="none" stroke="black" points="406.75,-0.5 406.75,-36.5 546.75,-36.5 546.75,-0.5 406.75,-0.5"/>
<text text-anchor="middle" x="431.25" y="-13.7" font-family="Times New Roman,serif" font-size="14.00">f=b*x</text>
<polyline fill="none" stroke="black" points="455.75,-1 455.75,-36.5"/>
<text text-anchor="middle" x="501.25" y="-13.7" font-family="Times New Roman,serif" font-size="14.00">data &#45;12.0000</text>
</g>
<!-- 2865912802592+ -->
<g id="node13" class="node">
<title>2865912802592+</title>
<ellipse fill="none" stroke="black" cx="789.5" cy="-45.5" rx="27" ry="18"/>
<text text-anchor="middle" x="789.5" y="-40.45" font-family="Times New Roman,serif" font-size="14.00">+</text>
</g>
<!-- 2865912798272&#45;&gt;2865912802592+ -->
<g id="edge14" class="edge">
<title>2865912798272&#45;&gt;2865912802592+</title>
<path fill="none" stroke="black" d="M547.1,-24.53C610.2,-30.01 700.92,-37.89 751.27,-42.27"/>
<polygon fill="black" stroke="black" points="750.79,-45.74 761.05,-43.12 751.4,-38.76 750.79,-45.74"/>
</g>
<!-- 2865912798272* -->
<g id="node4" class="node">
<title>2865912798272*</title>
<ellipse fill="none" stroke="black" cx="170" cy="-30.5" rx="27" ry="18"/>
<text text-anchor="middle" x="170" y="-25.45" font-family="Times New Roman,serif" font-size="14.00">*</text>
</g>
<!-- 2865912798272*&#45;&gt;2865912798272 -->
<g id="edge2" class="edge">
<title>2865912798272*&#45;&gt;2865912798272</title>
<path fill="none" stroke="black" d="M197.25,-29.47C240.78,-27.75 329.65,-24.25 395.34,-21.67"/>
<polygon fill="black" stroke="black" points="395.13,-25.18 404.98,-21.29 394.85,-18.18 395.13,-25.18"/>
</g>
<!-- 2865912792656 -->
<g id="node5" class="node">
<title>2865912792656</title>
<polygon fill="none" stroke="black" points="251,-47.5 251,-83.5 352.75,-83.5 352.75,-47.5 251,-47.5"/>
<text text-anchor="middle" x="262" y="-60.7" font-family="Times New Roman,serif" font-size="14.00">a</text>
<polyline fill="none" stroke="black" points="273,-48 273,-83.5"/>
<text text-anchor="middle" x="312.88" y="-60.7" font-family="Times New Roman,serif" font-size="14.00">data 3.0000</text>
</g>
<!-- 2865912792656&#45;&gt;2865912805088* -->
<g id="edge8" class="edge">
<title>2865912792656&#45;&gt;2865912805088*</title>
<path fill="none" stroke="black" d="M352.88,-67.81C380.08,-69.07 413.18,-70.6 438.16,-71.76"/>
<polygon fill="black" stroke="black" points="437.71,-75.24 447.86,-72.21 438.03,-68.25 437.71,-75.24"/>
</g>
<!-- 2865912802928 -->
<g id="node6" class="node">
<title>2865912802928</title>
<polygon fill="none" stroke="black" points="1115.5,-54.5 1115.5,-90.5 1251.75,-90.5 1251.75,-54.5 1115.5,-54.5"/>
<text text-anchor="middle" x="1140.38" y="-67.7" font-family="Times New Roman,serif" font-size="14.00">f=g+c</text>
<polyline fill="none" stroke="black" points="1165.25,-55 1165.25,-90.5"/>
<text text-anchor="middle" x="1208.5" y="-67.7" font-family="Times New Roman,serif" font-size="14.00">data 20.0000</text>
</g>
<!-- 2865912802928+ -->
<g id="node7" class="node">
<title>2865912802928+</title>
<ellipse fill="none" stroke="black" cx="1052.5" cy="-72.5" rx="27" ry="18"/>
<text text-anchor="middle" x="1052.5" y="-67.45" font-family="Times New Roman,serif" font-size="14.00">+</text>
</g>
<!-- 2865912802928+&#45;&gt;2865912802928 -->
<g id="edge3" class="edge">
<title>2865912802928+&#45;&gt;2865912802928</title>
<path fill="none" stroke="black" d="M1079.94,-72.5C1087.12,-72.5 1095.29,-72.5 1103.8,-72.5"/>
<polygon fill="black" stroke="black" points="1103.62,-76 1113.62,-72.5 1103.62,-69 1103.62,-76"/>
</g>
<!-- 2865912802496 -->
<g id="node8" class="node">
<title>2865912802496</title>
<polygon fill="none" stroke="black" points="870.12,-82.5 870.12,-118.5 971.88,-118.5 971.88,-82.5 870.12,-82.5"/>
<text text-anchor="middle" x="881.12" y="-95.7" font-family="Times New Roman,serif" font-size="14.00">c</text>
<polyline fill="none" stroke="black" points="892.12,-83 892.12,-118.5"/>
<text text-anchor="middle" x="932" y="-95.7" font-family="Times New Roman,serif" font-size="14.00">data 5.0000</text>
</g>
<!-- 2865912802496&#45;&gt;2865912802928+ -->
<g id="edge10" class="edge">
<title>2865912802496&#45;&gt;2865912802928+</title>
<path fill="none" stroke="black" d="M972.07,-89.67C986.49,-86.56 1001.94,-83.22 1015.34,-80.32"/>
<polygon fill="black" stroke="black" points="1016,-83.76 1025.04,-78.22 1014.52,-76.91 1016,-83.76"/>
</g>
<!-- 2865912805088 -->
<g id="node9" class="node">
<title>2865912805088</title>
<polygon fill="none" stroke="black" points="582.75,-53.5 582.75,-89.5 726.5,-89.5 726.5,-53.5 582.75,-53.5"/>
<text text-anchor="middle" x="611.38" y="-66.7" font-family="Times New Roman,serif" font-size="14.00">k=x2*a</text>
<polyline fill="none" stroke="black" points="640,-54 640,-89.5"/>
<text text-anchor="middle" x="683.25" y="-66.7" font-family="Times New Roman,serif" font-size="14.00">data 27.0000</text>
</g>
<!-- 2865912805088&#45;&gt;2865912802592+ -->
<g id="edge12" class="edge">
<title>2865912805088&#45;&gt;2865912802592+</title>
<path fill="none" stroke="black" d="M726.73,-57.59C735.52,-55.87 744.2,-54.17 752.15,-52.61"/>
<polygon fill="black" stroke="black" points="752.58,-56.1 761.72,-50.74 751.23,-49.23 752.58,-56.1"/>
</g>
<!-- 2865912805088*&#45;&gt;2865912805088 -->
<g id="edge4" class="edge">
<title>2865912805088*&#45;&gt;2865912805088</title>
<path fill="none" stroke="black" d="M504.08,-73.2C522.03,-73 546.87,-72.71 571.14,-72.44"/>
<polygon fill="black" stroke="black" points="571.13,-75.94 581.09,-72.32 571.06,-68.94 571.13,-75.94"/>
</g>
<!-- 2865912802544 -->
<g id="node11" class="node">
<title>2865912802544</title>
<polygon fill="none" stroke="black" points="2.25,-90.5 2.25,-126.5 104.75,-126.5 104.75,-90.5 2.25,-90.5"/>
<text text-anchor="middle" x="13.62" y="-103.7" font-family="Times New Roman,serif" font-size="14.00">x</text>
<polyline fill="none" stroke="black" points="25,-91 25,-126.5"/>
<text text-anchor="middle" x="64.88" y="-103.7" font-family="Times New Roman,serif" font-size="14.00">data 3.0000</text>
</g>
<!-- 2865912802544&#45;&gt;2865912802304* -->
<g id="edge7" class="edge">
<title>2865912802544&#45;&gt;2865912802304*</title>
<path fill="none" stroke="black" d="M105.05,-111.15C113.93,-111.61 123.03,-112.09 131.47,-112.53"/>
<polygon fill="black" stroke="black" points="131.2,-116.02 141.37,-113.05 131.56,-109.03 131.2,-116.02"/>
</g>
<!-- 2865912802544&#45;&gt;2865912798272* -->
<g id="edge13" class="edge">
<title>2865912802544&#45;&gt;2865912798272*</title>
<path fill="none" stroke="black" d="M81.63,-90.02C99.49,-77.85 122.81,-61.97 140.86,-49.67"/>
<polygon fill="black" stroke="black" points="142.74,-52.62 149.03,-44.1 138.8,-46.84 142.74,-52.62"/>
</g>
<!-- 2865912802592 -->
<g id="node12" class="node">
<title>2865912802592</title>
<polygon fill="none" stroke="black" points="852.5,-27.5 852.5,-63.5 989.5,-63.5 989.5,-27.5 852.5,-27.5"/>
<text text-anchor="middle" x="877.75" y="-40.7" font-family="Times New Roman,serif" font-size="14.00">g=k+f</text>
<polyline fill="none" stroke="black" points="903,-28 903,-63.5"/>
<text text-anchor="middle" x="946.25" y="-40.7" font-family="Times New Roman,serif" font-size="14.00">data 15.0000</text>
</g>
<!-- 2865912802592&#45;&gt;2865912802928+ -->
<g id="edge11" class="edge">
<title>2865912802592&#45;&gt;2865912802928+</title>
<path fill="none" stroke="black" d="M989.78,-59.63C998.58,-61.47 1007.31,-63.29 1015.3,-64.95"/>
<polygon fill="black" stroke="black" points="1014.44,-68.35 1024.94,-66.96 1015.87,-61.5 1014.44,-68.35"/>
</g>
<!-- 2865912802592+&#45;&gt;2865912802592 -->
<g id="edge5" class="edge">
<title>2865912802592+&#45;&gt;2865912802592</title>
<path fill="none" stroke="black" d="M816.71,-45.5C823.9,-45.5 832.09,-45.5 840.64,-45.5"/>
<polygon fill="black" stroke="black" points="840.52,-49 850.52,-45.5 840.52,-42 840.52,-49"/>
</g>
<!-- 2865912467856 -->
<g id="node14" class="node">
<title>2865912467856</title>
<polygon fill="none" stroke="black" points="0,-12.5 0,-48.5 107,-48.5 107,-12.5 0,-12.5"/>
<text text-anchor="middle" x="11.38" y="-25.7" font-family="Times New Roman,serif" font-size="14.00">b</text>
<polyline fill="none" stroke="black" points="22.75,-13 22.75,-48.5"/>
<text text-anchor="middle" x="64.88" y="-25.7" font-family="Times New Roman,serif" font-size="14.00">data &#45;4.0000</text>
</g>
<!-- 2865912467856&#45;&gt;2865912798272* -->
<g id="edge6" class="edge">
<title>2865912467856&#45;&gt;2865912798272*</title>
<path fill="none" stroke="black" d="M107.39,-30.5C115.39,-30.5 123.5,-30.5 131.1,-30.5"/>
<polygon fill="black" stroke="black" points="131.01,-34 141.01,-30.5 131.01,-27 131.01,-34"/>
</g>
</g>
</svg>
